STARTFONT 2.1
COMMENT $XConsortium: luRS10.bdf,v 1.7 94/04/02 16:23:45 gildea Exp $
COMMENT  (c) Copyright Bigelow & Holmes 1986, 1985. Lucida is a registered
COMMENT  trademark of Bigelow & Holmes. See LEGAL NOTICE file for terms 
COMMENT  of the license. 
COMMENT  
COMMENT  Translation to ISO8859-2 by Cub Soft;  Petr.Kolar@vslib.cz
COMMENT  
FONT -B&H-Lucida-Medium-R-Normal-Sans-14-100-100-100-P-80-ISO8859-2
SIZE 10 100 100
FONTBOUNDINGBOX 22 16 -8 -3
STARTPROPERTIES 20
COMMENT Begin LogicalFontDescription
FONTNAME_REGISTRY ""
FOUNDRY "B&H"
FAMILY_NAME "Lucida"
WEIGHT_NAME "Medium"
SLANT "R"
SETWIDTH_NAME "Normal"
ADD_STYLE_NAME "Sans"
PIXEL_SIZE 14
POINT_SIZE 100
RESOLUTION_X 100
RESOLUTION_Y 100
SPACING "P"
AVERAGE_WIDTH 80
CHARSET_REGISTRY "ISO8859"
CHARSET_ENCODING "2"
COMMENT END LogicalFontDescription
FONT_ASCENT 13
FONT_DESCENT 3
DEFAULT_CHAR 0
COPYRIGHT "Copyright Bigelow & Holmes 1986, 1985., Copyright 1996 Cub Soft"
FACE_NAME "Lucida Sans"
ENDPROPERTIES
CHARS 191
STARTCHAR space
ENCODING 32
SWIDTH 316 0
DWIDTH 4 0
BBX 1 1 0 0
BITMAP
00
ENDCHAR
STARTCHAR exclam
ENCODING 33
SWIDTH 205 0
DWIDTH 4 0
BBX 1 10 2 0
BITMAP
80
80
80
80
80
80
80
00
00
80
ENDCHAR
STARTCHAR quotedbl
ENCODING 34
SWIDTH 373 0
DWIDTH 5 0
BBX 3 2 1 8
BITMAP
a0
a0
ENDCHAR
STARTCHAR numbersign
ENCODING 35
SWIDTH 633 0
DWIDTH 9 0
BBX 9 10 0 0
BITMAP
0900
1a00
1200
7f80
1200
2400
ff00
2400
2c00
4800
ENDCHAR
STARTCHAR dollar
ENCODING 36
SWIDTH 633 0
DWIDTH 9 0
BBX 5 13 2 -2
BITMAP
20
78
a0
a0
a0
60
30
28
28
a8
f8
30
20
ENDCHAR
STARTCHAR percent
ENCODING 37
SWIDTH 669 0
DWIDTH 9 0
BBX 11 10 0 0
BITMAP
7060
88c0
8980
8b00
7600
0dc0
1a20
3220
6220
c1c0
ENDCHAR
STARTCHAR ampersand
ENCODING 38
SWIDTH 697 0
DWIDTH 10 0
BBX 9 10 0 0
BITMAP
1c00
2200
2200
3c00
7800
8c80
8480
8380
c300
3d80
ENDCHAR
STARTCHAR apostrophe
ENCODING 39
SWIDTH 229 0
DWIDTH 3 0
BBX 2 3 1 7
BITMAP
c0
40
c0
ENDCHAR
STARTCHAR parenleft
ENCODING 40
SWIDTH 325 0
DWIDTH 5 0
BBX 3 13 1 -3
BITMAP
20
40
40
80
80
80
80
80
80
80
40
40
20
ENDCHAR
STARTCHAR parenright
ENCODING 41
SWIDTH 325 0
DWIDTH 5 0
BBX 3 13 1 -3
BITMAP
80
80
40
20
20
20
20
20
20
20
40
80
80
ENDCHAR
STARTCHAR asterisk
ENCODING 42
SWIDTH 482 0
DWIDTH 7 0
BBX 5 4 1 6
BITMAP
20
f8
50
50
ENDCHAR
STARTCHAR plus
ENCODING 43
SWIDTH 633 0
DWIDTH 9 0
BBX 9 8 0 0
BITMAP
0800
0800
0800
0800
ff80
0800
0800
0800
ENDCHAR
STARTCHAR comma
ENCODING 44
SWIDTH 316 0
DWIDTH 4 0
BBX 2 5 1 -3
BITMAP
c0
c0
40
40
80
ENDCHAR
STARTCHAR minus
ENCODING 45
SWIDTH 633 0
DWIDTH 9 0
BBX 8 1 0 3
BITMAP
ff
ENDCHAR
STARTCHAR period
ENCODING 46
SWIDTH 316 0
DWIDTH 4 0
BBX 2 1 1 0
BITMAP
c0
ENDCHAR
STARTCHAR slash
ENCODING 47
SWIDTH 494 0
DWIDTH 7 0
BBX 7 13 0 -3
BITMAP
02
04
04
08
08
18
10
30
20
20
40
40
80
ENDCHAR
STARTCHAR zero
ENCODING 48
SWIDTH 633 0
DWIDTH 9 0
BBX 7 10 1 0
BITMAP
38
44
82
82
82
82
82
82
44
38
ENDCHAR
STARTCHAR one
ENCODING 49
SWIDTH 633 0
DWIDTH 9 0
BBX 3 10 2 0
BITMAP
e0
20
20
20
20
20
20
20
20
20
ENDCHAR
STARTCHAR two
ENCODING 50
SWIDTH 633 0
DWIDTH 9 0
BBX 6 10 1 0
BITMAP
78
8c
04
04
0c
18
20
40
c0
fc
ENDCHAR
STARTCHAR three
ENCODING 51
SWIDTH 633 0
DWIDTH 9 0
BBX 5 10 2 0
BITMAP
f0
88
08
08
70
08
08
08
98
f0
ENDCHAR
STARTCHAR four
ENCODING 52
SWIDTH 633 0
DWIDTH 9 0
BBX 7 10 1 0
BITMAP
0c
0c
14
24
44
c4
fe
04
04
04
ENDCHAR
STARTCHAR five
ENCODING 53
SWIDTH 633 0
DWIDTH 9 0
BBX 5 10 2 0
BITMAP
f8
80
80
80
f0
18
08
08
18
f0
ENDCHAR
STARTCHAR six
ENCODING 54
SWIDTH 633 0
DWIDTH 9 0
BBX 7 10 1 0
BITMAP
3c
44
c0
80
bc
c6
82
82
44
38
ENDCHAR
STARTCHAR seven
ENCODING 55
SWIDTH 633 0
DWIDTH 9 0
BBX 6 10 2 0
BITMAP
fc
0c
08
18
10
30
20
20
40
40
ENDCHAR
STARTCHAR eight
ENCODING 56
SWIDTH 633 0
DWIDTH 9 0
BBX 7 10 1 0
BITMAP
7c
82
82
c6
38
4c
82
82
c6
7c
ENDCHAR
STARTCHAR nine
ENCODING 57
SWIDTH 633 0
DWIDTH 9 0
BBX 7 10 1 0
BITMAP
78
c4
82
82
c6
7a
02
02
04
78
ENDCHAR
STARTCHAR colon
ENCODING 58
SWIDTH 316 0
DWIDTH 4 0
BBX 1 7 2 0
BITMAP
80
00
00
00
00
00
80
ENDCHAR
STARTCHAR semicolon
ENCODING 59
SWIDTH 316 0
DWIDTH 4 0
BBX 1 10 2 -3
BITMAP
80
00
00
00
00
00
80
80
80
80
ENDCHAR
STARTCHAR less
ENCODING 60
SWIDTH 633 0
DWIDTH 9 0
BBX 8 8 0 0
BITMAP
01
06
18
e0
60
18
06
01
ENDCHAR
STARTCHAR equal
ENCODING 61
SWIDTH 633 0
DWIDTH 9 0
BBX 8 4 0 2
BITMAP
ff
00
00
ff
ENDCHAR
STARTCHAR greater
ENCODING 62
SWIDTH 633 0
DWIDTH 9 0
BBX 8 8 0 0
BITMAP
80
60
18
06
07
18
60
80
ENDCHAR
STARTCHAR question
ENCODING 63
SWIDTH 422 0
DWIDTH 6 0
BBX 5 10 0 0
BITMAP
f0
88
08
18
30
60
40
00
00
40
ENDCHAR
STARTCHAR at
ENCODING 64
SWIDTH 858 0
DWIDTH 12 0
BBX 11 10 2 0
BITMAP
0f80
30c0
6720
4920
9220
9220
9640
9b80
6000
3e00
ENDCHAR
STARTCHAR A
ENCODING 65
SWIDTH 690 0
DWIDTH 10 0
BBX 9 10 0 0
BITMAP
0800
1400
1400
1400
2200
2200
7f00
4100
4100
8080
ENDCHAR
STARTCHAR B
ENCODING 66
SWIDTH 575 0
DWIDTH 8 0
BBX 6 10 1 0
BITMAP
f8
84
84
8c
f8
88
84
84
84
f8
ENDCHAR
STARTCHAR C
ENCODING 67
SWIDTH 692 0
DWIDTH 10 0
BBX 8 10 1 0
BITMAP
1f
61
40
80
80
80
80
40
61
1e
ENDCHAR
STARTCHAR D
ENCODING 68
SWIDTH 749 0
DWIDTH 10 0
BBX 8 10 2 0
BITMAP
fc
86
83
81
81
81
81
81
82
fc
ENDCHAR
STARTCHAR E
ENCODING 69
SWIDTH 542 0
DWIDTH 8 0
BBX 6 10 1 0
BITMAP
fc
80
80
80
f8
80
80
80
80
fc
ENDCHAR
STARTCHAR F
ENCODING 70
SWIDTH 536 0
DWIDTH 8 0
BBX 5 10 2 0
BITMAP
f8
80
80
80
f0
80
80
80
80
80
ENDCHAR
STARTCHAR G
ENCODING 71
SWIDTH 723 0
DWIDTH 10 0
BBX 8 10 1 0
BITMAP
1f
61
40
80
80
81
81
c1
61
3f
ENDCHAR
STARTCHAR H
ENCODING 72
SWIDTH 735 0
DWIDTH 10 0
BBX 8 10 1 0
BITMAP
81
81
81
81
ff
81
81
81
81
81
ENDCHAR
STARTCHAR I
ENCODING 73
SWIDTH 288 0
DWIDTH 4 0
BBX 1 10 2 0
BITMAP
80
80
80
80
80
80
80
80
80
80
ENDCHAR
STARTCHAR J
ENCODING 74
SWIDTH 311 0
DWIDTH 4 0
BBX 4 13 0 -3
BITMAP
10
10
10
10
10
10
10
10
10
10
10
10
e0
ENDCHAR
STARTCHAR K
ENCODING 75
SWIDTH 653 0
DWIDTH 9 0
BBX 8 10 1 0
BITMAP
86
8c
98
b0
a0
e0
90
88
84
83
ENDCHAR
STARTCHAR L
ENCODING 76
SWIDTH 533 0
DWIDTH 7 0
BBX 6 10 1 0
BITMAP
80
80
80
80
80
80
80
80
80
fc
ENDCHAR
STARTCHAR M
ENCODING 77
SWIDTH 861 0
DWIDTH 12 0
BBX 9 10 2 0
BITMAP
c180
c180
e380
a280
a280
9480
9480
9480
8880
8080
ENDCHAR
STARTCHAR N
ENCODING 78
SWIDTH 741 0
DWIDTH 10 0
BBX 8 10 1 0
BITMAP
81
c1
a1
b1
91
89
8d
85
83
81
ENDCHAR
STARTCHAR O
ENCODING 79
SWIDTH 777 0
DWIDTH 11 0
BBX 9 10 1 0
BITMAP
3e00
6300
4100
8080
8080
8080
8080
4100
6300
3e00
ENDCHAR
STARTCHAR P
ENCODING 80
SWIDTH 553 0
DWIDTH 8 0
BBX 6 10 1 0
BITMAP
f8
84
84
84
88
f0
80
80
80
80
ENDCHAR
STARTCHAR Q
ENCODING 81
SWIDTH 777 0
DWIDTH 11 0
BBX 10 13 1 -3
BITMAP
3e00
6300
4100
8080
8080
8080
8080
4180
6300
3e00
0380
01c0
0080
ENDCHAR
STARTCHAR R
ENCODING 82
SWIDTH 633 0
DWIDTH 9 0
BBX 6 10 2 0
BITMAP
f8
84
84
84
88
f0
98
88
84
84
ENDCHAR
STARTCHAR S
ENCODING 83
SWIDTH 539 0
DWIDTH 8 0
BBX 6 10 1 0
BITMAP
78
88
80
c0
60
18
04
04
8c
f8
ENDCHAR
STARTCHAR T
ENCODING 84
SWIDTH 633 0
DWIDTH 9 0
BBX 9 10 0 0
BITMAP
ff80
0800
0800
0800
0800
0800
0800
0800
0800
0800
ENDCHAR
STARTCHAR U
ENCODING 85
SWIDTH 693 0
DWIDTH 10 0
BBX 7 10 1 0
BITMAP
82
82
82
82
82
82
82
82
c6
7c
ENDCHAR
STARTCHAR V
ENCODING 86
SWIDTH 654 0
DWIDTH 9 0
BBX 9 10 0 0
BITMAP
8080
4100
4100
2100
2200
2200
1400
1400
1c00
0800
ENDCHAR
STARTCHAR W
ENCODING 87
SWIDTH 855 0
DWIDTH 12 0
BBX 12 10 0 0
BITMAP
8610
4630
4620
4620
4920
2940
2940
2940
3080
1080
ENDCHAR
STARTCHAR X
ENCODING 88
SWIDTH 626 0
DWIDTH 9 0
BBX 8 10 0 0
BITMAP
c3
62
24
1c
18
18
3c
24
42
c3
ENDCHAR
STARTCHAR Y
ENCODING 89
SWIDTH 623 0
DWIDTH 9 0
BBX 8 10 0 0
BITMAP
c3
42
24
24
18
10
10
10
10
10
ENDCHAR
STARTCHAR Z
ENCODING 90
SWIDTH 605 0
DWIDTH 8 0
BBX 7 10 1 0
BITMAP
fe
04
04
08
10
10
20
40
40
fe
ENDCHAR
STARTCHAR bracketleft
ENCODING 91
SWIDTH 325 0
DWIDTH 5 0
BBX 3 13 1 -3
BITMAP
e0
80
80
80
80
80
80
80
80
80
80
80
e0
ENDCHAR
STARTCHAR backslash
ENCODING 92
SWIDTH 494 0
DWIDTH 7 0
BBX 7 13 0 -3
BITMAP
80
40
40
20
20
30
10
18
08
08
04
04
02
ENDCHAR
STARTCHAR bracketright
ENCODING 93
SWIDTH 325 0
DWIDTH 5 0
BBX 3 13 0 -3
BITMAP
e0
20
20
20
20
20
20
20
20
20
20
20
e0
ENDCHAR
STARTCHAR asciicircum
ENCODING 94
SWIDTH 633 0
DWIDTH 9 0
BBX 8 8 0 2
BITMAP
08
18
18
24
24
42
42
81
ENDCHAR
STARTCHAR underscore
ENCODING 95
SWIDTH 500 0
DWIDTH 7 0
BBX 6 1 1 -2
BITMAP
fc
ENDCHAR
STARTCHAR grave
ENCODING 96
SWIDTH 614 0
DWIDTH 9 0
BBX 3 1 2 9
BITMAP
e0
ENDCHAR
STARTCHAR a
ENCODING 97
SWIDTH 552 0
DWIDTH 8 0
BBX 7 7 1 0
BITMAP
7c
44
04
7c
84
84
7e
ENDCHAR
STARTCHAR b
ENCODING 98
SWIDTH 630 0
DWIDTH 9 0
BBX 7 10 1 0
BITMAP
80
80
80
bc
c6
82
82
82
c4
b8
ENDCHAR
STARTCHAR c
ENCODING 99
SWIDTH 518 0
DWIDTH 7 0
BBX 5 7 1 0
BITMAP
78
c0
80
80
80
c0
78
ENDCHAR
STARTCHAR d
ENCODING 100
SWIDTH 630 0
DWIDTH 9 0
BBX 7 10 1 0
BITMAP
02
02
02
3a
46
82
82
82
c6
7a
ENDCHAR
STARTCHAR e
ENCODING 101
SWIDTH 557 0
DWIDTH 8 0
BBX 6 7 1 0
BITMAP
78
44
84
fc
80
40
3c
ENDCHAR
STARTCHAR f
ENCODING 102
SWIDTH 367 0
DWIDTH 5 0
BBX 5 11 1 0
BITMAP
38
40
40
40
f0
40
40
40
40
40
40
ENDCHAR
STARTCHAR g
ENCODING 103
SWIDTH 623 0
DWIDTH 9 0
BBX 7 10 1 -3
BITMAP
3a
46
82
82
82
c6
7a
02
42
7c
ENDCHAR
STARTCHAR h
ENCODING 104
SWIDTH 620 0
DWIDTH 9 0
BBX 6 10 1 0
BITMAP
80
80
80
b8
c4
84
84
84
84
84
ENDCHAR
STARTCHAR i
ENCODING 105
SWIDTH 289 0
DWIDTH 4 0
BBX 1 10 2 0
BITMAP
80
00
00
80
80
80
80
80
80
80
ENDCHAR
STARTCHAR j
ENCODING 106
SWIDTH 304 0
DWIDTH 4 0
BBX 4 13 0 -3
BITMAP
10
00
00
10
10
10
10
10
10
10
10
10
e0
ENDCHAR
STARTCHAR k
ENCODING 107
SWIDTH 585 0
DWIDTH 8 0
BBX 6 10 2 0
BITMAP
80
80
80
88
90
a0
c0
a0
90
8c
ENDCHAR
STARTCHAR l
ENCODING 108
SWIDTH 289 0
DWIDTH 4 0
BBX 1 10 2 0
BITMAP
80
80
80
80
80
80
80
80
80
80
ENDCHAR
STARTCHAR m
ENCODING 109
SWIDTH 934 0
DWIDTH 13 0
BBX 11 7 1 0
BITMAP
b9c0
c620
8420
8420
8420
8420
8420
ENDCHAR
STARTCHAR n
ENCODING 110
SWIDTH 620 0
DWIDTH 9 0
BBX 6 7 1 0
BITMAP
b8
c4
84
84
84
84
84
ENDCHAR
STARTCHAR o
ENCODING 111
SWIDTH 614 0
DWIDTH 9 0
BBX 7 7 1 0
BITMAP
38
44
82
82
82
44
38
ENDCHAR
STARTCHAR p
ENCODING 112
SWIDTH 630 0
DWIDTH 9 0
BBX 7 10 1 -3
BITMAP
bc
c6
82
82
82
c4
b8
80
80
80
ENDCHAR
STARTCHAR q
ENCODING 113
SWIDTH 630 0
DWIDTH 9 0
BBX 7 10 1 -3
BITMAP
3a
46
82
82
82
c6
7a
02
02
02
ENDCHAR
STARTCHAR r
ENCODING 114
SWIDTH 409 0
DWIDTH 6 0
BBX 4 7 1 0
BITMAP
b0
c0
80
80
80
80
80
ENDCHAR
STARTCHAR s
ENCODING 115
SWIDTH 510 0
DWIDTH 7 0
BBX 5 7 1 0
BITMAP
70
80
c0
70
08
88
f0
ENDCHAR
STARTCHAR t
ENCODING 116
SWIDTH 374 0
DWIDTH 5 0
BBX 4 9 1 0
BITMAP
40
40
f0
40
40
40
40
40
30
ENDCHAR
STARTCHAR u
ENCODING 117
SWIDTH 620 0
DWIDTH 9 0
BBX 6 7 1 0
BITMAP
84
84
84
84
84
8c
74
ENDCHAR
STARTCHAR v
ENCODING 118
SWIDTH 572 0
DWIDTH 7 0
BBX 7 7 0 0
BITMAP
82
44
44
68
28
28
10
ENDCHAR
STARTCHAR w
ENCODING 119
SWIDTH 840 0
DWIDTH 11 0
BBX 11 7 0 0
BITMAP
8420
4a40
4a40
4a40
3280
3180
3180
ENDCHAR
STARTCHAR x
ENCODING 120
SWIDTH 613 0
DWIDTH 9 0
BBX 7 7 1 0
BITMAP
c6
6c
28
10
28
4c
c6
ENDCHAR
STARTCHAR y
ENCODING 121
SWIDTH 568 0
DWIDTH 7 0
BBX 7 10 0 -3
BITMAP
82
44
44
2c
28
28
10
10
30
20
ENDCHAR
STARTCHAR z
ENCODING 122
SWIDTH 573 0
DWIDTH 8 0
BBX 6 7 1 0
BITMAP
fc
08
10
30
60
40
fc
ENDCHAR
STARTCHAR braceleft
ENCODING 123
SWIDTH 325 0
DWIDTH 5 0
BBX 3 13 0 -3
BITMAP
20
40
40
40
40
40
80
40
40
40
40
40
20
ENDCHAR
STARTCHAR bar
ENCODING 124
SWIDTH 265 0
DWIDTH 4 0
BBX 1 13 1 -3
BITMAP
80
80
80
80
80
80
80
80
80
80
80
80
80
ENDCHAR
STARTCHAR braceright
ENCODING 125
SWIDTH 325 0
DWIDTH 5 0
BBX 3 13 1 -3
BITMAP
80
40
40
40
40
40
20
40
40
40
40
40
80
ENDCHAR
STARTCHAR asciitilde
ENCODING 126
SWIDTH 633 0
DWIDTH 9 0
BBX 8 3 0 2
BITMAP
61
99
86
ENDCHAR
STARTCHAR nobreakspace
ENCODING 160
SWIDTH 316 0
DWIDTH 4 0
BBX 1 1 0 0
BITMAP
00
ENDCHAR
STARTCHAR Aogonek
ENCODING 161
SWIDTH 690 0
DWIDTH 10 0
BBX 9 11 0 -1
BITMAP
0800
1400
1400
1400
2200
2200
7f00
4100
4100
8080
0c00
ENDCHAR
STARTCHAR breve
ENCODING 162
SWIDTH 614 0
DWIDTH 9 0
BBX 5 1 2 9
BITMAP
f8
ENDCHAR
STARTCHAR Lstroke
ENCODING 163
SWIDTH 533 0
DWIDTH 7 0
BBX 8 10 0 0
BITMAP
20
20
20
28
30
e0
a0
20
20
3f
ENDCHAR
STARTCHAR currency
ENCODING 164
SWIDTH 633 0
DWIDTH 9 0
BBX 8 8 0 1
BITMAP
81
7e
66
42
42
66
7e
81
ENDCHAR
STARTCHAR Lcaron
ENCODING 165
SWIDTH 533 0
DWIDTH 7 0
BBX 6 11 1 0
BITMAP
30
90
b0
80
80
80
80
80
80
80
fc
ENDCHAR
STARTCHAR Sacute
ENCODING 166
SWIDTH 539 0
DWIDTH 8 0
BBX 6 12 1 0
BITMAP
70
00
78
88
80
c0
60
18
04
04
8c
f8
ENDCHAR
STARTCHAR section
ENCODING 167
SWIDTH 633 0
DWIDTH 9 0
BBX 6 13 2 -3
BITMAP
7c
80
80
c0
70
8c
84
c4
38
0c
04
84
f8
ENDCHAR
STARTCHAR diaeresis
ENCODING 168
SWIDTH 614 0
DWIDTH 9 0
BBX 4 1 2 9
BITMAP
90
ENDCHAR
STARTCHAR Scaron
ENCODING 169
SWIDTH 539 0
DWIDTH 8 0
BBX 6 12 1 0
BITMAP
f8
00
78
88
80
c0
60
18
04
04
8c
f8
ENDCHAR
STARTCHAR Scedilla
ENCODING 170
SWIDTH 539 0
DWIDTH 8 0
BBX 6 13 1 -3
BITMAP
78
88
80
c0
60
18
04
04
8c
f8
30
10
30
ENDCHAR
STARTCHAR Tcaron
ENCODING 171
SWIDTH 633 0
DWIDTH 9 0
BBX 9 12 0 0
BITMAP
3e00
0000
ff80
0800
0800
0800
0800
0800
0800
0800
0800
0800
ENDCHAR
STARTCHAR Zacute
ENCODING 172
SWIDTH 605 0
DWIDTH 8 0
BBX 7 12 1 0
BITMAP
38
00
fe
04
04
08
10
10
20
40
40
fe
ENDCHAR
STARTCHAR hyphen
ENCODING 173
SWIDTH 325 0
DWIDTH 5 0
BBX 3 1 1 4
BITMAP
e0
ENDCHAR
STARTCHAR Zcaron
ENCODING 174
SWIDTH 605 0
DWIDTH 8 0
BBX 7 12 1 0
BITMAP
7c
00
fe
04
04
08
10
10
20
40
40
fe
ENDCHAR
STARTCHAR Zabovedot
ENCODING 175
SWIDTH 605 0
DWIDTH 8 0
BBX 7 12 1 0
BITMAP
10
00
fe
04
04
08
10
10
20
40
40
fe
ENDCHAR
STARTCHAR degree
ENCODING 176
SWIDTH 277 0
DWIDTH 4 0
BBX 3 2 2 8
BITMAP
e0
60
ENDCHAR
STARTCHAR aogonek
ENCODING 177
SWIDTH 552 0
DWIDTH 8 0
BBX 7 8 1 -1
BITMAP
7c
44
04
7c
84
84
7e
18
ENDCHAR
STARTCHAR ogonek
ENCODING 178
SWIDTH 614 0
DWIDTH 9 0
BBX 2 1 4 -3
BITMAP
c0
ENDCHAR
STARTCHAR lstroke
ENCODING 179
SWIDTH 289 0
DWIDTH 4 0
BBX 5 10 0 0
BITMAP
20
20
20
28
30
e0
20
20
20
20
ENDCHAR
STARTCHAR acute
ENCODING 180
SWIDTH 614 0
DWIDTH 9 0
BBX 3 1 3 9
BITMAP
e0
ENDCHAR
STARTCHAR lcaron
ENCODING 181
SWIDTH 504 0
DWIDTH 7 0
BBX 4 11 2 0
BITMAP
30
90
b0
80
80
80
80
80
80
80
80
ENDCHAR
STARTCHAR sacute
ENCODING 182
SWIDTH 510 0
DWIDTH 7 0
BBX 5 9 1 0
BITMAP
e0
00
70
80
c0
70
08
88
f0
ENDCHAR
STARTCHAR caron
ENCODING 183
SWIDTH 614 0
DWIDTH 9 0
BBX 5 1 2 9
BITMAP
f8
ENDCHAR
STARTCHAR cedilla
ENCODING 184
SWIDTH 614 0
DWIDTH 9 0
BBX 2 3 4 -3
BITMAP
c0
40
c0
ENDCHAR
STARTCHAR scaron
ENCODING 185
SWIDTH 510 0
DWIDTH 7 0
BBX 6 9 0 0
BITMAP
f8
00
38
40
60
38
04
44
78
ENDCHAR
STARTCHAR scedilla
ENCODING 186
SWIDTH 510 0
DWIDTH 7 0
BBX 5 10 1 -3
BITMAP
70
80
c0
70
08
88
f0
30
10
30
ENDCHAR
STARTCHAR tcaron
ENCODING 187
SWIDTH 432 0
DWIDTH 6 0
BBX 5 11 1 0
BITMAP
18
08
58
40
f0
40
40
40
40
40
30
ENDCHAR
STARTCHAR zacute
ENCODING 188
SWIDTH 573 0
DWIDTH 8 0
BBX 6 9 1 0
BITMAP
70
00
fc
08
10
30
60
40
fc
ENDCHAR
STARTCHAR doubleacute
ENCODING 189
SWIDTH 614 0
DWIDTH 9 0
BBX 4 1 3 9
BITMAP
f0
ENDCHAR
STARTCHAR zcaron
ENCODING 190
SWIDTH 573 0
DWIDTH 8 0
BBX 6 9 1 0
BITMAP
f8
00
fc
08
10
30
60
40
fc
ENDCHAR
STARTCHAR zabovedot
ENCODING 191
SWIDTH 573 0
DWIDTH 8 0
BBX 6 9 1 0
BITMAP
20
00
fc
08
10
30
60
40
fc
ENDCHAR
STARTCHAR Racute
ENCODING 192
SWIDTH 633 0
DWIDTH 9 0
BBX 6 12 2 0
BITMAP
70
00
f8
84
84
84
88
f0
98
88
84
84
ENDCHAR
STARTCHAR Aacute
ENCODING 193
SWIDTH 690 0
DWIDTH 10 0
BBX 9 12 0 0
BITMAP
1c00
0000
0800
1400
1400
1400
2200
2200
7f00
4100
4100
8080
ENDCHAR
STARTCHAR Acircumflex
ENCODING 194
SWIDTH 690 0
DWIDTH 10 0
BBX 9 12 0 0
BITMAP
3e00
0000
0800
1400
1400
1400
2200
2200
7f00
4100
4100
8080
ENDCHAR
STARTCHAR Abreve
ENCODING 195
SWIDTH 690 0
DWIDTH 10 0
BBX 9 12 0 0
BITMAP
3e00
0000
0800
1400
1400
1400
2200
2200
7f00
4100
4100
8080
ENDCHAR
STARTCHAR Adiaeresis
ENCODING 196
SWIDTH 690 0
DWIDTH 10 0
BBX 9 12 0 0
BITMAP
1200
0000
0800
1400
1400
1400
2200
2200
7f00
4100
4100
8080
ENDCHAR
STARTCHAR Lacute
ENCODING 197
SWIDTH 533 0
DWIDTH 7 0
BBX 7 12 0 0
BITMAP
e0
00
40
40
40
40
40
40
40
40
40
7e
ENDCHAR
STARTCHAR Cacute
ENCODING 198
SWIDTH 692 0
DWIDTH 10 0
BBX 8 12 1 0
BITMAP
1c
00
1f
61
40
80
80
80
80
40
61
1e
ENDCHAR
STARTCHAR Ccedilla
ENCODING 199
SWIDTH 692 0
DWIDTH 10 0
BBX 8 13 1 -3
BITMAP
1f
61
40
80
80
80
80
40
61
1e
08
08
18
ENDCHAR
STARTCHAR Ccaron
ENCODING 200
SWIDTH 692 0
DWIDTH 10 0
BBX 8 12 1 0
BITMAP
3e
00
1f
61
40
80
80
80
80
40
61
1e
ENDCHAR
STARTCHAR Eacute
ENCODING 201
SWIDTH 542 0
DWIDTH 8 0
BBX 6 12 1 0
BITMAP
70
00
fc
80
80
80
f8
80
80
80
80
fc
ENDCHAR
STARTCHAR Eogonek
ENCODING 202
SWIDTH 542 0
DWIDTH 8 0
BBX 6 11 1 -1
BITMAP
fc
80
80
80
f8
80
80
80
80
fc
30
ENDCHAR
STARTCHAR Ediaeresis
ENCODING 203
SWIDTH 542 0
DWIDTH 8 0
BBX 6 12 1 0
BITMAP
48
00
fc
80
80
80
f8
80
80
80
80
fc
ENDCHAR
STARTCHAR Ecaron
ENCODING 204
SWIDTH 542 0
DWIDTH 8 0
BBX 6 12 1 0
BITMAP
f8
00
fc
80
80
80
f8
80
80
80
80
fc
ENDCHAR
STARTCHAR Iacute
ENCODING 205
SWIDTH 288 0
DWIDTH 4 0
BBX 3 12 3 0
BITMAP
e0
00
40
40
40
40
40
40
40
40
40
40
ENDCHAR
STARTCHAR Icircumflex
ENCODING 206
SWIDTH 288 0
DWIDTH 4 0
BBX 5 12 4 0
BITMAP
f8
00
20
20
20
20
20
20
20
20
20
20
ENDCHAR
STARTCHAR Dcaron
ENCODING 207
SWIDTH 749 0
DWIDTH 10 0
BBX 8 12 2 0
BITMAP
7c
00
fc
86
83
81
81
81
81
81
82
fc
ENDCHAR
STARTCHAR Dstroke
ENCODING 208
SWIDTH 749 0
DWIDTH 10 0
BBX 10 10 0 0
BITMAP
3f00
2180
20c0
2040
f840
2040
2040
2040
2080
3f00
ENDCHAR
STARTCHAR Nacute
ENCODING 209
SWIDTH 741 0
DWIDTH 10 0
BBX 8 12 1 0
BITMAP
38
00
81
c1
a1
b1
91
89
8d
85
83
81
ENDCHAR
STARTCHAR Ncaron
ENCODING 210
SWIDTH 741 0
DWIDTH 10 0
BBX 8 12 1 0
BITMAP
7c
00
81
c1
a1
b1
91
89
8d
85
83
81
ENDCHAR
STARTCHAR Oacute
ENCODING 211
SWIDTH 777 0
DWIDTH 11 0
BBX 9 12 1 0
BITMAP
1c00
0000
3e00
6300
4100
8080
8080
8080
8080
4100
6300
3e00
ENDCHAR
STARTCHAR Ocircumflex
ENCODING 212
SWIDTH 777 0
DWIDTH 11 0
BBX 9 12 1 0
BITMAP
3e00
0000
3e00
6300
4100
8080
8080
8080
8080
4100
6300
3e00
ENDCHAR
STARTCHAR Odoubleacute
ENCODING 213
SWIDTH 777 0
DWIDTH 11 0
BBX 9 12 1 0
BITMAP
1e00
0000
3e00
6300
4100
8080
8080
8080
8080
4100
6300
3e00
ENDCHAR
STARTCHAR Odiaeresis
ENCODING 214
SWIDTH 777 0
DWIDTH 11 0
BBX 9 12 1 0
BITMAP
1200
0000
3e00
6300
4100
8080
8080
8080
8080
4100
6300
3e00
ENDCHAR
STARTCHAR multiply
ENCODING 215
SWIDTH 633 0
DWIDTH 9 0
BBX 8 8 0 0
BITMAP
81
42
24
18
18
24
42
81
ENDCHAR
STARTCHAR Rcaron
ENCODING 216
SWIDTH 633 0
DWIDTH 9 0
BBX 6 12 2 0
BITMAP
f8
00
f8
84
84
84
88
f0
98
88
84
84
ENDCHAR
STARTCHAR Uring
ENCODING 217
SWIDTH 693 0
DWIDTH 10 0
BBX 7 14 1 0
BITMAP
18
24
18
00
82
82
82
82
82
82
82
82
c6
7c
ENDCHAR
STARTCHAR Uacute
ENCODING 218
SWIDTH 693 0
DWIDTH 10 0
BBX 7 12 1 0
BITMAP
38
00
82
82
82
82
82
82
82
82
c6
7c
ENDCHAR
STARTCHAR Udoubleacute
ENCODING 219
SWIDTH 693 0
DWIDTH 10 0
BBX 7 12 1 0
BITMAP
3c
00
82
82
82
82
82
82
82
82
c6
7c
ENDCHAR
STARTCHAR Udiaeresis
ENCODING 220
SWIDTH 693 0
DWIDTH 10 0
BBX 7 12 1 0
BITMAP
48
00
82
82
82
82
82
82
82
82
c6
7c
ENDCHAR
STARTCHAR Yacute
ENCODING 221
SWIDTH 623 0
DWIDTH 9 0
BBX 8 12 0 0
BITMAP
1c
00
c3
42
24
24
18
10
10
10
10
10
ENDCHAR
STARTCHAR Tcedilla
ENCODING 222
SWIDTH 633 0
DWIDTH 9 0
BBX 9 13 0 -3
BITMAP
ff80
0800
0800
0800
0800
0800
0800
0800
0800
0800
0c00
0400
0c00
ENDCHAR
STARTCHAR ssharp
ENCODING 223
SWIDTH 598 0
DWIDTH 8 0
BBX 6 11 2 0
BITMAP
70
88
88
90
a0
a0
90
8c
84
a4
b8
ENDCHAR
STARTCHAR racute
ENCODING 224
SWIDTH 409 0
DWIDTH 6 0
BBX 4 9 1 0
BITMAP
e0
00
b0
c0
80
80
80
80
80
ENDCHAR
STARTCHAR aacute
ENCODING 225
SWIDTH 552 0
DWIDTH 8 0
BBX 7 9 1 0
BITMAP
38
00
7c
44
04
7c
84
84
7e
ENDCHAR
STARTCHAR acircumflex
ENCODING 226
SWIDTH 552 0
DWIDTH 8 0
BBX 7 9 1 0
BITMAP
7c
00
7c
44
04
7c
84
84
7e
ENDCHAR
STARTCHAR abreve
ENCODING 227
SWIDTH 552 0
DWIDTH 8 0
BBX 7 9 1 0
BITMAP
7c
00
7c
44
04
7c
84
84
7e
ENDCHAR
STARTCHAR adiaeresis
ENCODING 228
SWIDTH 552 0
DWIDTH 8 0
BBX 7 9 1 0
BITMAP
48
00
7c
44
04
7c
84
84
7e
ENDCHAR
STARTCHAR lacute
ENCODING 229
SWIDTH 289 0
DWIDTH 4 0
BBX 3 12 1 0
BITMAP
e0
00
40
40
40
40
40
40
40
40
40
40
ENDCHAR
STARTCHAR cacute
ENCODING 230
SWIDTH 518 0
DWIDTH 7 0
BBX 5 9 1 0
BITMAP
70
00
78
c0
80
80
80
c0
78
ENDCHAR
STARTCHAR ccedilla
ENCODING 231
SWIDTH 518 0
DWIDTH 7 0
BBX 5 10 1 -3
BITMAP
78
c0
80
80
80
c0
78
10
10
30
ENDCHAR
STARTCHAR ccaron
ENCODING 232
SWIDTH 518 0
DWIDTH 7 0
BBX 5 9 1 0
BITMAP
f8
00
78
c0
80
80
80
c0
78
ENDCHAR
STARTCHAR eacute
ENCODING 233
SWIDTH 557 0
DWIDTH 8 0
BBX 6 9 1 0
BITMAP
38
00
78
44
84
fc
80
40
3c
ENDCHAR
STARTCHAR eogonek
ENCODING 234
SWIDTH 557 0
DWIDTH 8 0
BBX 6 8 1 -1
BITMAP
78
44
84
fc
80
40
3c
30
ENDCHAR
STARTCHAR ediaeresis
ENCODING 235
SWIDTH 557 0
DWIDTH 8 0
BBX 6 9 1 0
BITMAP
48
00
78
44
84
fc
80
40
3c
ENDCHAR
STARTCHAR ecaron
ENCODING 236
SWIDTH 557 0
DWIDTH 8 0
BBX 6 9 1 0
BITMAP
7c
00
78
44
84
fc
80
40
3c
ENDCHAR
STARTCHAR iacute
ENCODING 237
SWIDTH 289 0
DWIDTH 4 0
BBX 3 9 3 0
BITMAP
e0
00
40
40
40
40
40
40
40
ENDCHAR
STARTCHAR icircumflex
ENCODING 238
SWIDTH 289 0
DWIDTH 4 0
BBX 5 9 4 0
BITMAP
f8
00
20
20
20
20
20
20
20
ENDCHAR
STARTCHAR dcaron
ENCODING 239
SWIDTH 864 0
DWIDTH 12 0
BBX 10 11 1 0
BITMAP
00c0
0240
02c0
0200
3a00
4600
8200
8200
8200
c600
7a00
ENDCHAR
STARTCHAR dstroke
ENCODING 240
SWIDTH 792 0
DWIDTH 11 0
BBX 9 10 1 0
BITMAP
0200
0f80
0200
3a00
4600
8200
8200
8200
c600
7a00
ENDCHAR
STARTCHAR nacute
ENCODING 241
SWIDTH 620 0
DWIDTH 9 0
BBX 6 9 1 0
BITMAP
70
00
b8
c4
84
84
84
84
84
ENDCHAR
STARTCHAR ncaron
ENCODING 242
SWIDTH 620 0
DWIDTH 9 0
BBX 6 9 1 0
BITMAP
f8
00
b8
c4
84
84
84
84
84
ENDCHAR
STARTCHAR oacute
ENCODING 243
SWIDTH 614 0
DWIDTH 9 0
BBX 7 9 1 0
BITMAP
38
00
38
44
82
82
82
44
38
ENDCHAR
STARTCHAR ocircumflex
ENCODING 244
SWIDTH 614 0
DWIDTH 9 0
BBX 7 9 1 0
BITMAP
7c
00
38
44
82
82
82
44
38
ENDCHAR
STARTCHAR odoubleacute
ENCODING 245
SWIDTH 614 0
DWIDTH 9 0
BBX 7 9 1 0
BITMAP
3c
00
38
44
82
82
82
44
38
ENDCHAR
STARTCHAR odiaeresis
ENCODING 246
SWIDTH 614 0
DWIDTH 9 0
BBX 7 9 1 0
BITMAP
48
00
38
44
82
82
82
44
38
ENDCHAR
STARTCHAR division
ENCODING 247
SWIDTH 633 0
DWIDTH 9 0
BBX 7 7 1 0
BITMAP
10
00
00
fe
00
00
10
ENDCHAR
STARTCHAR rcaron
ENCODING 248
SWIDTH 409 0
DWIDTH 6 0
BBX 5 9 0 0
BITMAP
f8
00
58
60
40
40
40
40
40
ENDCHAR
STARTCHAR uring
ENCODING 249
SWIDTH 620 0
DWIDTH 9 0
BBX 6 11 1 0
BITMAP
30
48
30
00
84
84
84
84
84
8c
74
ENDCHAR
STARTCHAR uacute
ENCODING 250
SWIDTH 620 0
DWIDTH 9 0
BBX 6 9 1 0
BITMAP
38
00
84
84
84
84
84
8c
74
ENDCHAR
STARTCHAR udoubleacute
ENCODING 251
SWIDTH 620 0
DWIDTH 9 0
BBX 6 9 1 0
BITMAP
78
00
84
84
84
84
84
8c
74
ENDCHAR
STARTCHAR udiaeresis
ENCODING 252
SWIDTH 620 0
DWIDTH 9 0
BBX 6 9 1 0
BITMAP
48
00
84
84
84
84
84
8c
74
ENDCHAR
STARTCHAR yacute
ENCODING 253
SWIDTH 568 0
DWIDTH 7 0
BBX 7 12 0 -3
BITMAP
38
00
82
44
44
2c
28
28
10
10
30
20
ENDCHAR
STARTCHAR tcedilla
ENCODING 254
SWIDTH 374 0
DWIDTH 5 0
BBX 4 12 1 -3
BITMAP
40
40
f0
40
40
40
40
40
30
60
20
60
ENDCHAR
STARTCHAR abovedot
ENCODING 255
SWIDTH 614 0
DWIDTH 9 0
BBX 1 1 4 9
BITMAP
80
ENDCHAR
ENDFONT
